<?xml version="1.0" encoding="UTF-8" standalone="no"?>
<!DOCTYPE svg PUBLIC "-//W3C//DTD SVG 1.1//EN" "http://www.w3.org/Graphics/SVG/1.1/DTD/svg11.dtd">
<svg width="100%" height="100%" viewBox="0 0 2959 3765" version="1.1" xmlns="http://www.w3.org/2000/svg" xmlns:xlink="http://www.w3.org/1999/xlink" xml:space="preserve" xmlns:serif="http://www.serif.com/" style="fill-rule:evenodd;clip-rule:evenodd;stroke-miterlimit:10;">
    <g transform="matrix(1,0,0,1,-1053.903542,-8017.82816)">
        <g id="Page-1" serif:id="Page 1" transform="matrix(4.166667,0,0,4.166667,0,0)">
            <rect x="0" y="0" width="2870.89" height="2869.91" style="fill:none;"/>
            <g id="Layer-1" serif:id="Layer 1">
                <g transform="matrix(1,0,0,1,-28.52965,1633.324858)">
                    <path d="M633.415,1102.408L545.647,1102.408L545.647,1079.215L588.86,999.869C593.58,991.243 595.94,979.443 595.94,964.469C595.94,956.656 593.336,952.75 588.127,952.75C582.756,952.75 580.071,955.191 580.071,960.074L580.071,990.103L545.647,990.103L545.647,959.586C545.647,937.043 560.133,925.772 589.104,925.772C607.008,925.772 618.869,929.902 624.687,938.162C630.506,946.422 633.415,959.993 633.415,978.873C633.415,986.278 632.154,992.382 629.631,997.183L586.418,1079.947L633.415,1079.947L633.415,1102.408Z" style="fill:rgb(209,184,111);fill-rule:nonzero;"/>
                    <path d="M727.293,977.286L689.818,977.286L690.55,963.126C690.55,954.093 688.19,949.576 683.47,949.576C679.157,949.576 677,951.488 677,955.313L677,989.493C679.849,985.668 685.952,983.756 695.311,983.756C704.588,983.756 712.238,986.075 718.26,990.714C724.282,995.352 727.293,1001.7 727.293,1009.757L727.293,1072.257C727.293,1082.429 723.245,1090.262 715.147,1095.755C707.05,1101.248 696.491,1103.995 683.47,1103.995C654.173,1103.995 639.525,1093.497 639.525,1072.501L639.525,959.83C639.525,937.125 654.255,925.772 683.714,925.772C712.767,925.772 727.293,937.043 727.293,959.586L727.293,977.286ZM689.818,1073.844L689.818,1016.593C689.818,1012.686 687.702,1010.733 683.47,1010.733C679.157,1010.733 677,1012.686 677,1016.593L677,1073.844C677,1077.668 679.157,1079.581 683.47,1079.581C687.702,1079.581 689.818,1077.668 689.818,1073.844Z" style="fill:rgb(209,184,111);fill-rule:nonzero;"/>
                </g>
                <g transform="matrix(1,0,0,1,702.39755,2156.175758)">
                    <path d="M0,15.332C-11.005,22.785 -44.098,59.994 -44.098,59.994C-71.819,51.737 -118.734,54.144 -141.069,55.521C-141.069,55.521 -177.784,21.81 -201.636,9.086C-178.658,-31.652 -132.75,-41.048 -122.99,-42.619C-121.791,-42.804 -121.133,-42.882 -121.133,-42.882C-112.411,-44.058 -103.511,-44.662 -94.464,-44.662C-76.478,-44.662 -59.057,-42.271 -42.488,-37.79C-42.488,-37.782 -42.48,-37.782 -42.472,-37.782C-30.198,-29.756 -11.91,-13.736 0,15.332Z" style="fill:none;fill-rule:nonzero;stroke:rgb(209,184,111);stroke-width:5px;"/>
                </g>
                <g transform="matrix(1,0,0,1,579.40715,2211.131858)">
                    <path d="M0,-97.575C-9.759,-96.004 -55.668,-86.608 -78.645,-45.87C-125.173,-27.628 -141.232,-3.939 -143.646,0C-113.882,-51.705 -61.495,-88.737 0,-97.575Z" style="fill:none;fill-rule:nonzero;stroke:rgb(209,184,111);stroke-width:5px;"/>
                </g>
                <g transform="matrix(1,0,0,1,435.40475,2305.913358)">
                    <path d="M0,-94.17C-11.253,-71.092 -14.325,-34.369 -14.325,-34.369C-23.45,-23.767 -25.973,0 -25.973,0C-25.276,-34.215 -15.919,-66.309 0,-94.17Z" style="fill:none;fill-rule:nonzero;stroke:rgb(209,184,111);stroke-width:5px;"/>
                </g>
                <g transform="matrix(0,1,1,0,477.16895,2507.754258)">
                    <path d="M-33.615,63.496L-10.823,63.496C-25.156,23.678 -51.856,-10.235 -86.288,-33.615C-86.288,-33.615 -83.625,-24.56 -82.116,-9.314C-60.617,12.015 -47.561,37.206 -33.615,63.496Z" style="fill:none;fill-rule:nonzero;stroke:rgb(209,184,111);stroke-width:5px;"/>
                </g>
                <g transform="matrix(1,0,0,1,687.53075,2476.034958)">
                    <path d="M0,6.958L-2.353,17.003C-26.096,27.041 -52.201,32.59 -79.597,32.59C-103.209,32.59 -125.862,28.465 -146.866,20.896L-146.866,-1.896L-75.209,-25.632L0,6.958Z" style="fill:none;fill-rule:nonzero;stroke:rgb(209,184,111);stroke-width:5px;"/>
                </g>
                <g transform="matrix(-0.568478,-0.822699,-0.822699,0.568478,677.288997,2442.242341)">
                    <path d="M-39.348,-83.403C-51.072,-49.658 -53.632,-13.037 -46.275,22.386L-39.348,14.74C-44.925,-9.505 -43.232,-60.87 -32.856,-79.413L-39.348,-83.403Z" style="fill:none;fill-rule:nonzero;stroke:rgb(209,184,111);stroke-width:5px;"/>
                </g>
                <g transform="matrix(1,0,0,1,806.48915,2377.988358)">
                    <path d="M0,-67.919C0,-24.116 -14.186,16.376 -38.216,49.213L-45.189,46.141C-45.189,46.141 -39.501,-8.072 -48.331,-41.087C-30.554,-58.114 -3.955,-82.252 -6.153,-117.132C-2.136,-101.398 0,-84.906 0,-67.919Z" style="fill:none;fill-rule:nonzero;stroke:rgb(209,184,111);stroke-width:5px;"/>
                </g>
                <g transform="matrix(0.583588,-0.81205,-0.81205,-0.583588,782.359638,2137.064904)">
                    <path d="M-56.254,-28.761C-55.836,-27.222 -49.502,-1.941 -74.634,44.832C-58.318,70.928 -55.744,94.685 -56.254,109.415C-56.26,109.579 -56.028,109.619 -55.971,109.465C-39.281,64.353 -39.884,15.194 -56.254,-28.761Z" style="fill:none;fill-rule:nonzero;stroke:rgb(209,184,111);stroke-width:5px;"/>
                </g>
                <g transform="matrix(0,-1,-1,0,540.66895,2496.934858)">
                    <path d="M-0.004,0.004L0.004,0.004" style="fill:none;fill-rule:nonzero;stroke:rgb(209,184,111);stroke-width:5px;"/>
                </g>
                <g transform="matrix(1,0,0,1,760.11825,2312.075858)">
                    <path d="M0,-12.124C-11.19,9.418 -22.133,31.097 -33.571,52.51C-41.738,52.933 -45.822,53.127 -53.992,53.477C-57.945,53.791 -59.922,53.944 -63.876,54.241C-64.007,54.102 -64.073,54.032 -64.204,53.892C-50.472,26.76 -35.082,0.063 -22.708,-27.719C-22.575,-28.137 -22.51,-28.346 -22.377,-28.763C-22.377,-31.57 -24.573,-33.149 -28.962,-33.497C-39.5,-33.772 -50.04,-34.008 -60.58,-34.205C-76.015,-4.549 -90.146,26.08 -106.722,55.126C-116.941,55.334 -127.165,55.467 -137.385,55.523C-128.546,35.008 -117.334,15.308 -107.052,-4.496C-101.903,-14.571 -96.74,-24.637 -91.558,-34.695C-105.405,-34.869 -119.252,-34.983 -133.099,-35.036C-146.351,-12.228 -157.261,12.169 -169.041,35.751C-175.361,48.199 -178.879,54.72 -179.593,55.393C-190.671,55.405 -196.21,55.377 -207.286,55.251C-208.077,55.232 -208.473,55.222 -209.264,55.202C-209.396,55.051 -209.461,54.976 -209.593,54.825C-209.725,54.822 -209.791,54.821 -209.923,54.817C-189.22,14.543 -168.941,-25.945 -148.597,-66.401C-100.213,-66.205 -51.912,-64.624 -3.619,-61.653C6.141,-61.025 12.387,-57.286 15.129,-50.629C15.392,-49.001 15.523,-48.188 15.787,-46.563C14.12,-34.129 6.083,-22.746 0,-12.124M-253.009,53.661C-268.49,52.923 -283.959,52.068 -299.428,51.097C-311.218,50.324 -318.123,45.968 -320.149,38.255L-320.149,35.24C-320.149,30.495 -316.644,22.805 -309.626,11.696C-294.093,2.634 -278.767,-6.719 -263.549,-16.3L-263.549,-15.945C-268.909,-6.294 -276.66,4.772 -279.024,15.811L-279.024,16.864C-279.024,20.788 -276.281,23.089 -270.793,23.766C-261.837,24.005 -257.358,24.113 -248.397,24.307C-235.953,23.623 -228.279,8.59 -224.673,-1.584C-213.665,-23.414 -202.88,-45.404 -191.05,-66.806C-181.16,-66.984 -171.266,-67.092 -161.375,-67.128C-161.111,-66.831 -160.979,-66.682 -160.716,-66.384C-176.139,-35.147 -191.571,-3.914 -207.204,27.22C-217.139,42.489 -233.88,55.216 -253.009,53.661M7.242,-72.465C-78.587,-79.261 -164.471,-80.571 -250.468,-76.392C-261.592,-56.245 -272.857,-36.186 -284.344,-16.243C-294.25,-9.82 -304.242,-3.53 -314.342,2.585C-319.005,10.918 -323.746,19.215 -328.569,27.457C-335.807,41.188 -326.336,58.422 -310.78,59.976C-216.515,67.534 -122.168,68.447 -27.775,62.712C-10.267,29.16 7.724,-4.094 26.743,-36.817C35.014,-51.194 23.99,-71.647 7.242,-72.465" style="fill:rgb(209,184,111);fill-rule:nonzero;"/>
                </g>
                <g transform="matrix(1,0,0,1,520.42535,1924.278758)">
                    <path d="M0,180.427C26.872,168.961 56.449,162.609 87.511,162.609C118.574,162.609 148.151,168.961 175.023,180.427L209.182,104.889L158.212,128.3L159.702,46.82L116.042,107.26L87.511,0L58.982,107.26L15.322,46.82L16.812,128.3L-34.158,104.889L0,180.427Z" style="fill:rgb(209,184,111);fill-rule:nonzero;"/>
                </g>
                <g transform="matrix(1,0,0,1,257.09285,2314.225558)">
                    <path d="M0,-8.312L104.553,-8.312C106.849,-8.312 108.709,-6.451 108.709,-4.156C108.709,-1.861 106.849,0 104.553,0L0,0C-2.295,0 -4.156,-1.861 -4.156,-4.156C-4.156,-6.451 -2.295,-8.312 0,-8.312" style="fill:rgb(209,184,111);fill-rule:nonzero;"/>
                </g>
                <g transform="matrix(1,0,0,1,388.52495,2351.058358)">
                    <path d="M0,-81.978L-63.544,-81.978C-83.288,-81.978 -99.887,-67.83 -103.706,-49.171L-26.963,-49.171C-22.444,-49.171 -18.781,-45.508 -18.781,-40.989C-18.781,-36.47 -22.444,-32.807 -26.963,-32.807L-103.706,-32.807C-99.887,-14.148 -83.288,0 -63.544,0L0,0C-2.467,-13.289 -3.77,-26.986 -3.77,-40.989C-3.77,-54.992 -2.467,-68.689 0,-81.978" style="fill:rgb(209,184,111);fill-rule:nonzero;"/>
                </g>
                <g transform="matrix(0.87633,0.481712,0.481712,-0.87633,316.69465,2352.526969)">
                    <path d="M5.591,7.031C-9.841,-1.451 -29.146,1.6 -41.263,14.148L5.591,39.903C7.987,28.722 10.438,18.567 12.595,10.881L5.591,7.031Z" style="fill:rgb(170,147,89);fill-rule:nonzero;"/>
                </g>
                <g transform="matrix(1,0,0,1,343.50865,2351.058258)">
                    <path d="M0,-32.807L-58.689,-32.807C-54.871,-14.148 -38.272,0 -18.528,0L-8.942,0C-6.89,-9.087 -3.624,-20.885 0,-32.807M-5.376,-28.807C-8.125,-19.518 -10.454,-10.949 -12.117,-4L-18.528,-4C-34.339,-4 -48.314,-14.177 -53.444,-28.807L-5.376,-28.807Z" style="fill:rgb(209,184,111);fill-rule:nonzero;"/>
                </g>
                <g transform="matrix(0.378504,0.925599,0.925599,-0.378504,295.908706,2258.334019)">
                    <path d="M35.223,-23.65C21.373,-13.045 16.137,5.785 22.802,22.085L35.223,52.457C39.96,47.578 47.972,40.264 57.89,31.781L35.223,-23.65Z" style="fill:rgb(170,147,89);fill-rule:nonzero;"/>
                </g>
                <g transform="matrix(1,0,0,1,360.91485,2301.887358)">
                    <path d="M0,-32.807L-35.934,-32.807C-55.678,-32.807 -72.277,-18.659 -76.096,0L-12.232,0C-7.561,-14.214 -2.944,-26.79 0,-32.807M-6.135,-28.807C-8.628,-22.735 -11.746,-14.138 -15.122,-4L-70.851,-4C-65.72,-18.63 -51.745,-28.807 -35.934,-28.807L-6.135,-28.807Z" style="fill:rgb(209,184,111);fill-rule:nonzero;"/>
                </g>
                <g transform="matrix(1,0,0,1,607.93685,2111.512858)">
                    <path d="M0,397.112C-109.659,397.112 -198.555,308.216 -198.555,198.556C-198.555,88.897 -109.659,0.001 0,0.001C109.659,0.001 198.556,88.897 198.556,198.556C198.556,308.216 109.659,397.112 0,397.112M0,-20.466C-120.962,-20.466 -219.022,77.594 -219.022,198.556C-219.022,319.519 -120.962,417.578 0,417.578C120.963,417.578 219.022,319.519 219.022,198.556C219.022,77.594 120.963,-20.466 0,-20.466" style="fill:rgb(209,184,111);fill-rule:nonzero;"/>
                </g>
                <g transform="matrix(1,0,0,1,452.44445,2178.574058)">
                    <path d="M0,135.394C9.688,129.763 19.273,123.969 28.775,118.054C39.794,99.688 50.6,81.214 61.271,62.659C72.927,62.115 84.582,61.684 96.235,61.342C99.951,52.041 104.165,42.713 108.884,33.123C108.884,33.123 72.17,-0.589 48.317,-13.312C1.79,4.929 -14.269,28.619 -16.684,32.558C-16.908,32.93 -17.016,33.123 -17.016,33.123C-17.024,33.138 -17.032,33.154 -17.04,33.169C-28.292,56.248 -31.365,92.97 -31.365,92.97C-26.103,115.729 -16.077,135.35 -7.867,148.706C-5.222,144.281 -2.594,139.845 0,135.394Z" style="fill:none;fill-rule:nonzero;stroke:rgb(209,184,111);stroke-width:5px;"/>
                </g>
                <g transform="matrix(1,0,0,1,458.84695,2474.139258)">
                    <path d="M0,-107.099C1.361,-90.351 4.019,-66.829 9.008,-48.501C30.337,-27.002 55.528,-13.946 81.818,0L153.475,-23.736L156.629,-101.403C104.397,-101.265 52.186,-103.159 0,-107.099Z" style="fill:none;fill-rule:nonzero;stroke:rgb(209,184,111);stroke-width:5px;"/>
                </g>
                <g transform="matrix(1,0,0,1,747.24155,2482.992758)">
                    <path d="M0,-149.69C-6.727,-137.726 -13.356,-125.71 -19.911,-113.65C-57.204,-111.475 -94.49,-110.355 -131.766,-110.257L-134.92,-32.589L-59.711,0C-36.594,-9.194 4.702,-39.787 14.059,-58.864C14.059,-58.864 19.747,-113.076 10.917,-146.092L0,-149.69Z" style="fill:none;fill-rule:nonzero;stroke:rgb(209,184,111);stroke-width:5px;"/>
                </g>
                <g transform="matrix(1,0,0,1,800.33645,2247.552158)">
                    <path d="M0,13.304C-5.642,-8.846 -15.014,-29.501 -27.404,-47.959C-27.404,-47.959 -27.42,-47.982 -27.451,-48.021C-28.457,-49.259 -45.289,-69.157 -97.939,-76.045C-108.944,-68.592 -142.037,-31.382 -142.037,-31.382C-138.437,-25.179 -134.976,-16.822 -131.773,-7.602C-100.978,-6.675 -70.193,-5.042 -39.415,-2.702C-23.35,-1.949 -12.775,16.887 -20.709,30.129C-31.833,48.503 -42.586,67.061 -53.095,85.751L-42.178,89.349C-24.402,72.323 2.198,48.184 0,13.304Z" style="fill:none;fill-rule:nonzero;stroke:rgb(209,184,111);stroke-width:5px;"/>
                </g>
                <g transform="matrix(0.254774,-0.967001,-0.967001,-0.254774,639.383086,2170.048426)">
                    <path d="M-60.161,-46.026C-52.061,-40.581 -44.861,-35.105 -39.78,-30.043C-38.858,-1.132 -53.138,43.62 -60.161,64.868C-70.636,66.989 -80.73,68.687 -90.671,69.91C-79.35,31.546 -69.174,-7.096 -60.161,-46.026Z" style="fill:none;fill-rule:nonzero;stroke:rgb(209,184,111);stroke-width:5px;"/>
                </g>
                <g transform="matrix(1,0,0,1,455.86115,2330.358958)">
                    <path d="M0,36.464C-14.922,35.033 -24.008,19.161 -17.065,6.515C-15.121,3.327 -13.2,0.125 -11.284,-3.079C-19.493,-16.435 -29.52,-36.056 -34.781,-58.815C-43.906,-48.213 -46.429,-24.446 -46.429,-24.446C-46.46,-23.06 -46.475,-21.675 -46.475,-20.29C-46.475,20.999 -33.876,59.339 -12.307,91.108C-12.307,91.108 -3.252,93.77 11.994,95.279C7.005,76.951 4.347,53.429 2.986,36.681C1.991,36.606 0.995,36.541 0,36.464Z" style="fill:none;fill-rule:nonzero;stroke:rgb(209,184,111);stroke-width:5px;"/>
                </g>
                <g transform="matrix(1,0,0,1,469.29275,2357.334458)">
                    <path d="M0,410.103C-4.504,407.217 -10.098,405.756 -16.667,405.756C-21.459,405.756 -26.753,406.542 -32.45,408.095C-16.941,370.79 -10.292,339.941 -10.292,305.682C-10.292,246.214 -60.237,215.635 -90.078,197.364C-114.006,182.717 -154.148,148.481 -154.148,83.756C-154.148,54.583 -149.803,26.414 -141.232,0L-86.803,0C-105.149,45.598 -126.698,127.554 -76.578,184.614C-64.212,198.691 -48.242,207.03 -32.796,215.094C-1.992,231.177 27.104,246.368 27.104,304.592C27.104,331.074 19.979,374.303 0,410.103" style="fill:rgb(170,147,89);fill-rule:nonzero;"/>
                </g>
                <g transform="matrix(1,0,0,1,385.46435,2770.350158)">
                    <path d="M0,-415.015L-58.853,-415.015C-66.314,-392.462 -72.32,-363.68 -72.32,-329.26C-72.32,-272.961 -42.344,-235.401 -7.294,-213.946C26.169,-193.458 71.536,-164.085 71.536,-107.334C71.536,-71.83 64.173,-39.923 47.888,-1.787C54.964,-4.092 61.439,-5.259 67.162,-5.259C74.141,-5.259 80.003,-3.524 84.477,0C104.609,-34.991 112.932,-78.659 112.932,-108.423C112.932,-197.632 45.066,-188.379 8.753,-229.722C-39.977,-285.2 -20.318,-365.763 0,-415.015M-5.921,-411.015C-24.174,-364.496 -44.081,-283.81 5.748,-227.082C18.359,-212.724 34.499,-204.297 50.107,-196.149C65.523,-188.1 80.085,-180.497 90.968,-167.715C103.224,-153.319 108.932,-134.479 108.932,-108.423C108.932,-82.622 102.108,-40.78 83.066,-5.675C78.591,-8.056 73.263,-9.259 67.162,-9.259C63.302,-9.259 59.14,-8.771 54.723,-7.803C69.269,-43.743 75.536,-73.922 75.536,-107.334C75.536,-167.923 24.993,-198.868 -5.206,-217.358C-23.888,-228.794 -38.809,-243.359 -49.553,-260.648C-62.006,-280.686 -68.32,-303.771 -68.32,-329.26C-68.32,-357.712 -64.158,-385.202 -55.945,-411.015L-5.921,-411.015Z" style="fill:rgb(209,184,111);fill-rule:nonzero;"/>
                </g>
                <g transform="matrix(1,0,0,1,379.17015,2611.738158)">
                    <path d="M0,-55.334C-35.049,-76.789 -65.025,-114.349 -65.025,-170.648C-65.025,-205.066 -59.021,-233.851 -51.561,-256.403L-55.409,-256.403C-68.62,-256.403 -80.548,-262.145 -88.842,-271.248C-98.432,-246.809 -105.566,-218.75 -105.566,-188.063C-105.566,-90.153 -44.75,-57.488 -26.603,-46.094C37.159,-6.012 53.634,17.389 53.634,46.921C53.634,108.567 -4.218,154.083 -29.273,215.914C1.872,184.472 31.81,164.437 55.182,156.825C71.467,118.689 78.83,86.782 78.83,51.278C78.83,-5.473 33.463,-34.846 0,-55.334" style="fill:rgb(209,184,111);fill-rule:nonzero;"/>
                </g>
                <g transform="matrix(1,0,0,1,958.78075,2314.225558)">
                    <path d="M0,-8.312L-104.553,-8.312C-106.849,-8.312 -108.709,-6.451 -108.709,-4.156C-108.709,-1.861 -106.849,0 -104.553,0L0,0C2.295,0 4.156,-1.861 4.156,-4.156C4.156,-6.451 2.295,-8.312 0,-8.312" style="fill:rgb(209,184,111);fill-rule:nonzero;"/>
                </g>
                <g transform="matrix(1,0,0,1,827.34875,2351.058358)">
                    <path d="M0,-81.978L63.544,-81.978C83.288,-81.978 99.887,-67.83 103.706,-49.171L26.963,-49.171C22.444,-49.171 18.781,-45.508 18.781,-40.989C18.781,-36.47 22.444,-32.807 26.963,-32.807L103.706,-32.807C99.887,-14.148 83.288,0 63.544,0L0,0C2.467,-13.289 3.77,-26.986 3.77,-40.989C3.77,-54.992 2.467,-68.689 0,-81.978" style="fill:rgb(209,184,111);fill-rule:nonzero;"/>
                </g>
                <g transform="matrix(0.533885,0.845557,0.845557,-0.533885,879.526281,2326.371027)">
                    <path d="M20.985,-9.26C13.437,-6.638 3.449,-3.578 -7.56,-0.511L20.985,44.697C32.776,31.843 34.654,12.389 25.252,-2.502L20.985,-9.26Z" style="fill:rgb(170,147,89);fill-rule:nonzero;"/>
                </g>
                <g transform="matrix(1,0,0,1,931.05455,2351.058258)">
                    <path d="M0,-32.807L-58.689,-32.807C-55.066,-20.885 -51.8,-9.087 -49.748,0L-40.162,0C-20.417,0 -3.819,-14.148 0,-32.807M-5.245,-28.807C-10.376,-14.177 -24.35,-4 -40.162,-4L-46.572,-4C-48.236,-10.949 -50.565,-19.518 -53.313,-28.807L-5.245,-28.807Z" style="fill:rgb(209,184,111);fill-rule:nonzero;"/>
                </g>
                <g transform="matrix(0.791351,0.611362,0.611362,-0.791351,864.977712,2281.804047)">
                    <path d="M13.952,-12.073C3.133,-4.773 -6.05,1.002 -12.016,4.268L13.952,24.329C27.887,35.095 47.433,35.064 61.343,24.539L13.952,-12.073Z" style="fill:rgb(170,147,89);fill-rule:nonzero;"/>
                </g>
                <g transform="matrix(1,0,0,1,890.89285,2301.887358)">
                    <path d="M0,-32.807L-35.934,-32.807C-32.99,-26.79 -28.373,-14.214 -23.702,0L40.162,0C36.343,-18.659 19.744,-32.807 0,-32.807M0,-28.807C15.811,-28.807 29.786,-18.63 34.916,-4L-20.812,-4C-24.188,-14.138 -27.306,-22.734 -29.799,-28.807L0,-28.807Z" style="fill:rgb(209,184,111);fill-rule:nonzero;"/>
                </g>
                <g transform="matrix(1,0,0,1,746.58135,2357.335458)">
                    <path d="M0,410.102C-19.979,374.302 -27.104,331.073 -27.104,304.591C-27.104,246.367 1.991,231.176 32.795,215.093C48.241,207.029 64.212,198.691 76.578,184.613C126.698,127.553 105.149,45.598 86.803,0L141.232,0C149.803,26.414 154.147,54.583 154.147,83.755C154.147,148.48 114.006,182.716 90.078,197.363C60.237,215.634 10.292,246.213 10.292,305.681C10.292,339.939 16.941,370.789 32.449,408.094C26.753,406.541 21.459,405.755 16.667,405.755C10.098,405.755 4.504,407.216 0,410.102" style="fill:rgb(170,147,89);fill-rule:nonzero;"/>
                </g>
                <g transform="matrix(1,0,0,1,889.26225,2770.350158)">
                    <path d="M0,-415.015L-58.853,-415.015C-38.535,-365.763 -18.876,-285.2 -67.606,-229.722C-103.919,-188.379 -171.785,-197.632 -171.785,-108.423C-171.785,-78.659 -163.462,-34.991 -143.33,0C-138.856,-3.524 -132.994,-5.259 -126.015,-5.259C-120.292,-5.259 -113.817,-4.092 -106.741,-1.787C-123.026,-39.923 -130.389,-71.83 -130.389,-107.334C-130.389,-164.085 -85.021,-193.458 -51.559,-213.946C-16.509,-235.401 13.467,-272.961 13.467,-329.26C13.467,-363.68 7.461,-392.462 0,-415.015M-2.907,-411.015C5.305,-385.202 9.467,-357.712 9.467,-329.26C9.467,-303.771 3.153,-280.686 -9.3,-260.648C-20.044,-243.359 -34.964,-228.794 -53.647,-217.357C-83.846,-198.868 -134.389,-167.923 -134.389,-107.334C-134.389,-73.922 -128.122,-43.743 -113.576,-7.803C-117.993,-8.771 -122.155,-9.259 -126.015,-9.259C-132.115,-9.259 -137.444,-8.056 -141.918,-5.675C-160.961,-40.78 -167.785,-82.622 -167.785,-108.423C-167.785,-134.479 -162.077,-153.319 -149.821,-167.715C-138.937,-180.497 -124.376,-188.1 -108.959,-196.149C-93.352,-204.297 -77.212,-212.724 -64.601,-227.082C-14.772,-283.81 -34.679,-364.496 -52.932,-411.015L-2.907,-411.015Z" style="fill:rgb(209,184,111);fill-rule:nonzero;"/>
                </g>
                <g transform="matrix(1,0,0,1,836.70355,2611.738158)">
                    <path d="M0,-55.334C35.049,-76.789 65.025,-114.349 65.025,-170.648C65.025,-205.066 59.021,-233.851 51.561,-256.403L55.409,-256.403C68.62,-256.403 80.548,-262.145 88.842,-271.248C98.432,-246.809 105.566,-218.75 105.566,-188.063C105.566,-90.153 44.75,-57.488 26.603,-46.094C-37.159,-6.012 -53.634,17.389 -53.634,46.921C-53.634,108.567 4.218,154.083 29.273,215.914C-1.872,184.472 -31.81,164.437 -55.182,156.825C-71.467,118.689 -78.83,86.782 -78.83,51.278C-78.83,-5.473 -33.463,-34.846 0,-55.334" style="fill:rgb(209,184,111);fill-rule:nonzero;"/>
                </g>
            </g>
        </g>
    </g>
</svg>
